# Wavefront OBJ file automatically generated by Tiled2Unity

# Vertices (Count = 68)
v 0 -2.56 0
v -1.28 -2.56 0
v -1.28 -1.92 0
v 0 -1.92 0
v -2.56 -2.56 0
v -2.56 -1.92 0
v -3.84 -2.56 0
v -3.84 -1.92 0
v -5.12 -2.56 0
v -5.12 -1.92 0
v -6.4 -2.56 0
v -6.4 -1.92 0
v -7.68 -2.56 0
v -7.68 -1.92 0
v -8.96 -2.56 0
v -8.96 -1.92 0
v -10.24 -2.56 0
v -10.24 -1.92 0
v -11.52 -2.56 0
v -11.52 -1.92 0
v -12.8 -2.56 0
v -12.8 -1.92 0
v -14.08 -2.56 0
v -14.08 -1.92 0
v -15.36 -2.56 0
v -15.36 -1.92 0
v -16.64 -2.56 0
v -16.64 -1.92 0
v -17.92 -2.56 0
v -17.92 -1.92 0
v -19.2 -2.56 0
v -19.2 -1.92 0
v -20.48 -2.56 0
v -20.48 -1.92 0
v 0 -5.12 0
v -1.28 -5.12 0
v -1.28 -4.48 0
v 0 -4.48 0
v -2.56 -5.12 0
v -2.56 -4.48 0
v -3.84 -5.12 0
v -3.84 -4.48 0
v -5.12 -5.12 0
v -5.12 -4.48 0
v -6.4 -5.12 0
v -6.4 -4.48 0
v -7.68 -5.12 0
v -7.68 -4.48 0
v -8.96 -5.12 0
v -8.96 -4.48 0
v -10.24 -5.12 0
v -10.24 -4.48 0
v -11.52 -5.12 0
v -11.52 -4.48 0
v -12.8 -5.12 0
v -12.8 -4.48 0
v -14.08 -5.12 0
v -14.08 -4.48 0
v -15.36 -5.12 0
v -15.36 -4.48 0
v -16.64 -5.12 0
v -16.64 -4.48 0
v -17.92 -5.12 0
v -17.92 -4.48 0
v -19.2 -5.12 0
v -19.2 -4.48 0
v -20.48 -5.12 0
v -20.48 -4.48 0

# Texture cooridinates (Count = 8)
vt 0.0001220703 0.0001220703
vt 0.9998779 0.0001220703
vt 0.9998779 0.9998779
vt 0.0001220703 0.9998779
vt 3.051758E-05 0.7500305
vt 0.2499695 0.7500305
vt 0.2499695 0.9999695
vt 3.051758E-05 0.9999695

# Normal
vn 0 0 -1

# Groups (Count = 2)

g mesh_0001
f 1/1/1 2/2/1 3/3/1 4/4/1
f 2/1/1 5/2/1 6/3/1 3/4/1
f 5/1/1 7/2/1 8/3/1 6/4/1
f 7/1/1 9/2/1 10/3/1 8/4/1
f 9/1/1 11/2/1 12/3/1 10/4/1
f 11/1/1 13/2/1 14/3/1 12/4/1
f 13/1/1 15/2/1 16/3/1 14/4/1
f 15/1/1 17/2/1 18/3/1 16/4/1
f 17/1/1 19/2/1 20/3/1 18/4/1
f 19/1/1 21/2/1 22/3/1 20/4/1
f 21/1/1 23/2/1 24/3/1 22/4/1
f 23/1/1 25/2/1 26/3/1 24/4/1
f 25/1/1 27/2/1 28/3/1 26/4/1
f 27/1/1 29/2/1 30/3/1 28/4/1
f 29/1/1 31/2/1 32/3/1 30/4/1
f 31/1/1 33/2/1 34/3/1 32/4/1
f 35/1/1 36/2/1 37/3/1 38/4/1
f 36/1/1 39/2/1 40/3/1 37/4/1
f 39/1/1 41/2/1 42/3/1 40/4/1
f 41/1/1 43/2/1 44/3/1 42/4/1
f 43/1/1 45/2/1 46/3/1 44/4/1
f 45/1/1 47/2/1 48/3/1 46/4/1
f 47/1/1 49/2/1 50/3/1 48/4/1
f 49/1/1 51/2/1 52/3/1 50/4/1
f 51/1/1 53/2/1 54/3/1 52/4/1
f 53/1/1 55/2/1 56/3/1 54/4/1
f 55/1/1 57/2/1 58/3/1 56/4/1
f 57/1/1 59/2/1 60/3/1 58/4/1
f 59/1/1 61/2/1 62/3/1 60/4/1
f 61/1/1 63/2/1 64/3/1 62/4/1
f 63/1/1 65/2/1 66/3/1 64/4/1
f 65/1/1 67/2/1 68/3/1 66/4/1

g mesh_0002
f 1/5/1 2/6/1 3/7/1 4/8/1
f 2/5/1 5/6/1 6/7/1 3/8/1
f 5/5/1 7/6/1 8/7/1 6/8/1
f 7/5/1 9/6/1 10/7/1 8/8/1
f 9/5/1 11/6/1 12/7/1 10/8/1
f 11/5/1 13/6/1 14/7/1 12/8/1
f 13/5/1 15/6/1 16/7/1 14/8/1
f 15/5/1 17/6/1 18/7/1 16/8/1
f 17/5/1 19/6/1 20/7/1 18/8/1
f 19/5/1 21/6/1 22/7/1 20/8/1
f 21/5/1 23/6/1 24/7/1 22/8/1
f 23/5/1 25/6/1 26/7/1 24/8/1
f 25/5/1 27/6/1 28/7/1 26/8/1
f 27/5/1 29/6/1 30/7/1 28/8/1
f 29/5/1 31/6/1 32/7/1 30/8/1
f 31/5/1 33/6/1 34/7/1 32/8/1
f 35/5/1 36/6/1 37/7/1 38/8/1
f 36/5/1 39/6/1 40/7/1 37/8/1
f 39/5/1 41/6/1 42/7/1 40/8/1
f 41/5/1 43/6/1 44/7/1 42/8/1
f 43/5/1 45/6/1 46/7/1 44/8/1
f 45/5/1 47/6/1 48/7/1 46/8/1
f 47/5/1 49/6/1 50/7/1 48/8/1
f 49/5/1 51/6/1 52/7/1 50/8/1
f 51/5/1 53/6/1 54/7/1 52/8/1
f 53/5/1 55/6/1 56/7/1 54/8/1
f 55/5/1 57/6/1 58/7/1 56/8/1
f 57/5/1 59/6/1 60/7/1 58/8/1
f 59/5/1 61/6/1 62/7/1 60/8/1
f 61/5/1 63/6/1 64/7/1 62/8/1
f 63/5/1 65/6/1 66/7/1 64/8/1
f 65/5/1 67/6/1 68/7/1 66/8/1

